HIERARCHY
ROOT Hips
{
 OFFSET 0.000000 0.000000 0.000000
 CHANNELS 6 Xposition Yposition Zposition Yrotation Xrotation Zrotation
 JOINT Chest
 {
  OFFSET 0.000000 9.585900 0.002600
  CHANNELS 3 Yrotation Xrotation Zrotation
  JOINT Chest2
  {
   OFFSET 0.000000 9.601200 -0.005300
   CHANNELS 3 Yrotation Xrotation Zrotation
   JOINT Chest3
   {
    OFFSET 0.000000 9.561800 0.000000
    CHANNELS 3 Yrotation Xrotation Zrotation
    JOINT Chest4
    {
     OFFSET 0.000000 9.552100 0.000000
     CHANNELS 3 Yrotation Xrotation Zrotation
     JOINT Neck
     {
      OFFSET 0.000000 14.453000 0.000000
      CHANNELS 3 Yrotation Xrotation Zrotation
      JOINT Head
      {
       OFFSET 0.000000 8.936500 -0.011300
       CHANNELS 3 Yrotation Xrotation Zrotation
       End Site
       {
        OFFSET 0.000000 17.073600 -0.006000
       }
      }
     }
     JOINT RightCollar
     {
      OFFSET -2.921100 9.558500 0.000000
      CHANNELS 3 Yrotation Xrotation Zrotation
      JOINT RightShoulder
      {
       OFFSET -13.519700 0.000000 0.000000
       CHANNELS 3 Yrotation Xrotation Zrotation
       JOINT RightElbow
       {
        OFFSET 0.000000 -29.696600 0.000000
        CHANNELS 3 Yrotation Xrotation Zrotation
        JOINT RightWrist
        {
         OFFSET 0.000000 -24.004700 0.000000
         CHANNELS 3 Yrotation Xrotation Zrotation
         End Site
         {
          OFFSET 0.000000 -17.728500 0.000000
         }
        }
       }
      }
     }
     JOINT LeftCollar
     {
      OFFSET 2.921100 9.558500 0.000000
      CHANNELS 3 Yrotation Xrotation Zrotation
      JOINT LeftShoulder
      {
       OFFSET 13.519700 0.000000 0.000000
       CHANNELS 3 Yrotation Xrotation Zrotation
       JOINT LeftElbow
       {
        OFFSET 0.000000 -29.696600 0.000000
        CHANNELS 3 Yrotation Xrotation Zrotation
        JOINT LeftWrist
        {
         OFFSET 0.000000 -24.004700 0.000000
         CHANNELS 3 Yrotation Xrotation Zrotation
         End Site
         {
          OFFSET 0.000000 -17.728500 0.000000
         }
        }
       }
      }
     }
    }
   }
  }
 }
 JOINT RightHip
 {
  OFFSET -7.771700 -0.012900 -0.001300
  CHANNELS 3 Yrotation Xrotation Zrotation
  JOINT RightKnee
  {
   OFFSET 0.000000 -40.869800 0.001200
   CHANNELS 3 Yrotation Xrotation Zrotation
   JOINT RightAnkle
   {
    OFFSET 0.000000 -39.717900 0.002100
    CHANNELS 3 Yrotation Xrotation Zrotation
    JOINT RightToe
    {
     OFFSET 0.000000 -4.965400 11.033500
     CHANNELS 3 Yrotation Xrotation Zrotation
     End Site
     {
      OFFSET 0.000000 -1.423100 5.872300
     }
    }
   }
  }
 }
 JOINT LeftHip
 {
  OFFSET 7.771700 -0.012900 -0.001300
  CHANNELS 3 Yrotation Xrotation Zrotation
  JOINT LeftKnee
  {
   OFFSET 0.000000 -40.869800 0.001200
   CHANNELS 3 Yrotation Xrotation Zrotation
   JOINT LeftAnkle
   {
    OFFSET 0.000000 -39.717900 0.002100
    CHANNELS 3 Yrotation Xrotation Zrotation
    JOINT LeftToe
    {
     OFFSET 0.000000 -4.965400 11.033500
     CHANNELS 3 Yrotation Xrotation Zrotation
     End Site
     {
      OFFSET 0.000000 -1.423100 5.872300
     }
    }
   }
  }
 }
}
MOTION
Frames: 9
Frame Time: 0.008333
-17.535783 43.606741 25.549551 175.214348 -21.809263 -0.268697 0.202489 17.370451 2.491564 -0.026950 1.901398 0.320756 -0.041977 3.161469 0.535330 0.091729 15.301508 2.609610 -0.190792 15.346285 -4.053927 0.722112 -9.594639 -4.242517 8.240131 2.758558 -4.510599 -8.827816 -6.505435 -1.105106 -132.119081 -84.670778 144.933172 -3.929801 3.822810 -39.312227 -14.014479 -1.011994 -6.069931 13.080530 -6.569181 1.889083 162.668142 -77.810454 178.284807 13.257517 17.544305 34.106748 -2.953388 -69.307675 9.799582 -156.547191 67.037660 -154.327058 -9.404610 -24.076087 7.482523 0.221677 -0.846065 0.119814 4.648250 -53.017174 -0.260692 179.797359 56.508093 178.950411 -3.340979 -42.253672 3.186854 -0.088294 -6.344491 1.891722
-17.538658 43.604587 25.548242 175.211017 -21.809678 -0.256706 0.197179 17.374100 2.483642 -0.027505 1.902326 0.320842 -0.039858 3.160170 0.532826 0.081768 15.309493 2.616813 -0.182119 15.346379 -4.067771 0.736450 -9.552964 -4.260385 8.255467 2.760977 -4.514368 -8.828274 -6.513238 -1.106819 -132.110859 -84.667709 144.924961 -3.960585 3.821367 -39.283848 -14.005657 -1.023615 -6.072800 13.070799 -6.556230 1.880019 162.682697 -77.818689 178.272245 13.277365 17.560337 34.151257 -2.939045 -69.311735 9.780314 -156.535460 67.034224 -154.325613 -9.393397 -24.051798 7.470620 0.223500 -0.852549 0.120091 4.665420 -53.014444 -0.280601 179.801309 56.506980 178.953375 -3.337633 -42.254098 3.185100 -0.089103 -6.346535 1.893507
-17.538926 43.602068 25.548337 175.199102 -21.804726 -0.256954 0.199659 17.368490 2.495122 -0.024461 1.905430 0.317697 -0.040403 3.161242 0.533171 0.082452 15.309059 2.613427 -0.179804 15.354343 -4.073031 0.740100 -9.544309 -4.266727 8.259485 2.760490 -4.518364 -8.815984 -6.499898 -1.084276 -132.057001 -84.654818 144.865875 -3.970677 3.823396 -39.241410 -14.007142 -1.023859 -6.069643 13.052376 -6.545492 1.875079 162.725828 -77.824016 178.243465 13.282231 17.546257 34.162604 -2.953397 -69.320547 9.800824 -156.443779 67.021143 -154.246667 -9.332236 -24.024751 7.440111 0.193628 -0.859205 0.126697 4.666315 -53.022456 -0.267644 179.813240 56.501054 178.963083 -3.336463 -42.248590 3.182390 -0.088376 -6.355542 1.897277
-17.541330 43.600421 25.546480 175.199703 -21.813205 -0.247095 0.191339 17.373619 2.487393 -0.028216 1.903890 0.321038 -0.040899 3.162623 0.533051 0.083064 15.314239 2.606157 -0.173879 15.375780 -4.079092 0.747702 -9.521487 -4.274904 8.267934 2.764788 -4.512076 -8.793066 -6.481460 -1.060376 -131.798226 -84.612263 144.631960 -3.909874 3.824984 -39.268210 -14.009227 -1.021647 -6.064015 13.038900 -6.538576 1.870153 162.776055 -77.826681 178.207335 13.283846 17.552969 34.173221 -2.936998 -69.317181 9.780178 -156.396702 67.012301 -154.202504 -9.334866 -23.992210 7.407555 0.204071 -0.877350 0.155541 4.673147 -53.013790 -0.276307 179.818832 56.498267 178.963907 -3.341749 -42.239713 3.182105 -0.085988 -6.366206 1.902547
-17.542277 43.598743 25.545315 175.193470 -21.820060 -0.242582 0.192477 17.377468 2.487061 -0.028534 1.903636 0.322319 -0.040931 3.162999 0.533273 0.082641 15.315810 2.606609 -0.163068 15.420908 -4.087557 0.750562 -9.511255 -4.285203 8.273698 2.774320 -4.506455 -8.784540 -6.478562 -1.059919 -131.662937 -84.594240 144.520277 -3.895735 3.823469 -39.282523 -14.012778 -1.016984 -6.062757 13.021251 -6.532978 1.870065 162.797536 -77.820876 178.208152 13.247468 17.590850 34.146259 -2.938478 -69.313228 9.784573 -156.359119 67.006245 -154.170191 -9.322628 -23.970180 7.385598 0.187570 -0.888268 0.167111 4.675831 -53.008770 -0.271819 179.820427 56.493291 178.961522 -3.339603 -42.228560 3.174900 -0.091127 -6.380533 1.908109
-17.542283 43.597173 25.544491 175.189655 -21.826987 -0.243763 0.195444 17.383337 2.490323 -0.029222 1.902485 0.325948 -0.041073 3.163221 0.533551 0.079529 15.313211 2.613909 -0.162056 15.431874 -4.101434 0.765764 -9.462706 -4.295703 8.278517 2.785980 -4.512801 -8.779677 -6.473772 -1.058591 -131.579382 -84.581241 144.457551 -3.917882 3.822948 -39.266780 -14.012149 -1.008694 -6.071510 12.996765 -6.533812 1.877410 162.845385 -77.821123 178.172245 13.242477 17.599209 34.132775 -2.955179 -69.307359 9.802311 -156.333162 67.003398 -154.148292 -9.308234 -23.952424 7.363152 0.198382 -0.868864 0.152044 4.667678 -53.001769 -0.255910 179.827067 56.489916 178.963601 -3.343460 -42.228302 3.175899 -0.088487 -6.384518 1.909283
-17.542382 43.595735 25.543990 175.190304 -21.833226 -0.245571 0.193816 17.387876 2.496013 -0.028756 1.903796 0.326161 -0.041441 3.163609 0.533959 0.078803 15.312894 2.611695 -0.155022 15.458719 -4.103550 0.784760 -9.387453 -4.306482 8.281321 2.791722 -4.507512 -8.779006 -6.470747 -1.064476 -131.593308 -84.573193 144.477903 -3.963836 3.819873 -39.205509 -14.012375 -1.004990 -6.073116 12.980828 -6.540208 1.885439 162.878141 -77.828719 178.135882 13.236919 17.603243 34.112997 -2.967427 -69.300642 9.811233 -156.323971 67.003893 -154.138739 -9.302115 -23.940889 7.344010 0.199369 -0.870759 0.157830 4.661334 -52.995969 -0.244384 179.833046 56.487212 178.966901 -3.348638 -42.227504 3.178494 -0.088126 -6.387552 1.910980
-17.542289 43.594577 25.543507 175.195893 -21.840639 -0.250166 0.188619 17.394772 2.505135 -0.028301 1.905026 0.324407 -0.041868 3.163938 0.534473 0.077060 15.312140 2.609515 -0.143878 15.511414 -4.102253 0.788880 -9.363938 -4.314307 8.281687 2.794928 -4.502259 -8.777581 -6.467612 -1.075333 -131.403209 -84.552879 144.317493 -3.954280 3.816017 -39.211139 -14.010935 -1.002453 -6.076001 12.973669 -6.545406 1.887787 162.913528 -77.831639 178.079279 13.230286 17.605642 34.086993 -2.982546 -69.292812 9.819705 -156.328054 67.004535 -154.139594 -9.301653 -23.932198 7.329089 0.200827 -0.871891 0.160079 4.646886 -52.989754 -0.230510 179.840441 56.484731 178.971360 -3.351952 -42.226595 3.177585 -0.088304 -6.389851 1.914435
-17.542425 43.593517 25.543586 175.200245 -21.845327 -0.253361 0.184511 17.400484 2.508457 -0.027451 1.904470 0.325244 -0.041251 3.163215 0.538446 0.072452 15.316089 2.610472 -0.142698 15.515977 -4.109835 0.793653 -9.341277 -4.315712 8.283984 2.795549 -4.501886 -8.775458 -6.462829 -1.089423 -131.292901 -84.529088 144.244754 -3.948770 3.809244 -39.207358 -14.004809 -0.995046 -6.082984 12.955548 -6.565584 1.903169 162.887491 -77.833908 178.095556 13.220845 17.606837 34.044920 -2.995986 -69.287607 9.827929 -156.331208 67.005681 -154.140174 -9.305282 -23.927526 7.320632 0.217985 -0.859693 0.151603 4.632381 -52.986000 -0.217718 179.845763 56.483135 178.972639 -3.355428 -42.226407 3.178355 -0.088463 -6.390593 1.915172
